<svg xmlns="http://www.w3.org/2000/svg" viewBox="0 0 480 135" width="100%" height="100%">
  <!-- U -->
  <path d="M 0,12 L 21,12 L 21,56 C 21,68 28,73 37,73 C 46,73 53,68 53,56 L 53,12 L 74,12 L 74,58 C 74,80 58,90 37,90 C 16,90 0,80 0,58 Z" fill="#18181b" />

  <!-- First T -->
  <path d="M 81,12 L 155,12 L 155,31 L 129,31 L 129,90 L 107,90 L 107,31 L 81,31 Z" fill="#18181b" />

  <!-- Second T -->
  <path d="M 162,12 L 236,12 L 236,31 L 210,31 L 210,90 L 188,90 L 188,31 L 162,31 Z" fill="#18181b" />

  <!-- Letter A (Blue Triangle + White Lightning + Electric Line) -->
  <g id="letter-a">
    <!-- Solid Blue Triangle -->
    <polygon points="280,12 336,90 224,90" fill="#009fe3" />
    
    <!-- White Cutout Lightning Bolt -->
    <polygon points="277,22 288,48 278,48 292,76 268,52 278,52" fill="#ffffff" />
    
    <!-- Extending Spark Line -->
    <line x1="244" y1="102" x2="310" y2="-2" stroke="#009fe3" stroke-width="3.5" stroke-linecap="round" />
  </g>

  <!-- Letter M -->
  <path d="M 345,12 L 366,12 L 390,56 L 414,12 L 435,12 L 435,90 L 415,90 L 415,38 L 390,82 L 365,38 L 365,90 L 345,90 Z" fill="#18181b" />

  <!-- Registered Trademark (R) -->
  <circle cx="458" cy="22" r="10" stroke="#18181b" stroke-width="2.2" fill="none" />
  <text x="458" y="26" font-family="Arial, sans-serif" font-weight="bold" font-size="12" fill="#18181b" text-anchor="middle">R</text>

  <!-- Tagline: POWER AND DISTRIBUTION TRANSFORMERS -->
  <text x="0" y="122" textLength="435" lengthAdjust="spacing" font-family="'Times New Roman', Georgia, 'Liberation Serif', serif" font-weight="bold" font-size="20" fill="#18181b">POWER AND DISTRIBUTION TRANSFORMERS</text>
</svg>